<svg width="70" height="70" viewBox="0 0 70 70" fill="none" xmlns="http://www.w3.org/2000/svg">
<path d="M6.77786 37.5477C11.7672 44.0716 15.9514 39.0373 18.513 33.7084L20.3192 29.4958L15.0428 14.3944C13.9582 11.2901 11.0293 9.21094 7.741 9.21094C2.41475 9.21093 -1.31762 14.4687 0.439208 19.4968L6.7196 37.4718C6.73913 37.4971 6.75855 37.5224 6.77786 37.5477Z" fill="url(#paint0_linear_59677_43226)"/>
<path d="M48.7731 31.8864C46.2794 38.4324 41.724 45.4622 35.9985 40.1297L42.5333 55.0444C43.7293 57.7739 46.4269 59.5372 49.407 59.5372C49.5192 59.5372 49.6307 59.5348 49.7414 59.53C49.8535 59.5348 49.9664 59.5372 50.0799 59.5372C53.3683 59.5372 56.2971 57.458 57.3817 54.3537L69.5606 19.4968C71.3175 14.4687 67.5851 9.21094 62.2588 9.21094C58.9705 9.21094 56.0417 11.2901 54.957 14.3944L48.8133 31.9782L48.7731 31.8864Z" fill="url(#paint1_linear_59677_43226)"/>
<path d="M27.2541 54.4857C26.7764 55.7377 25.9933 56.8103 25.0091 57.632C23.6687 58.8076 21.9058 59.5372 19.9216 59.5372C16.6333 59.5372 13.7045 57.458 12.6198 54.3538L6.72375 37.4787C6.74147 37.5018 6.75909 37.5247 6.77662 37.5476C11.7659 44.0716 15.9501 39.0372 18.5118 33.7084L20.3196 29.492L20.3606 29.6093L26.265 14.1366C27.3968 11.1705 30.2421 9.21094 33.4167 9.21094C33.5035 9.21094 33.5897 9.21234 33.6755 9.21513C33.7605 9.21235 33.8459 9.21096 33.9317 9.21096C36.9118 9.21096 39.6094 10.9742 40.8054 13.7038L48.8125 31.9788L48.7734 31.8898C46.2788 38.4366 41.7222 45.465 35.9956 40.1256L34.2523 36.1467L27.2541 54.4857Z" fill="#A9EB77"/>
<defs>
<linearGradient id="paint0_linear_59677_43226" x1="4.71809" y1="9.21094" x2="15.0407" y2="39.1624" gradientUnits="userSpaceOnUse">
<stop stop-color="#85E04A"/>
<stop offset="1" stop-color="#146A20"/>
</linearGradient>
<linearGradient id="paint1_linear_59677_43226" x1="64.6262" y1="9.21094" x2="45.1852" y2="59.5379" gradientUnits="userSpaceOnUse">
<stop stop-color="#85E04A"/>
<stop offset="1" stop-color="#146A20"/>
</linearGradient>
</defs>
</svg>
