<svg width="166" height="50" viewBox="0 0 166 50" fill="none" xmlns="http://www.w3.org/2000/svg">
<g clip-path="url(#clip0_59677_43226)">
<mask id="mask0_59677_43226" style="mask-type:luminance" maskUnits="userSpaceOnUse" x="0" y="0" width="36" height="43">
<path d="M35.3295 0H0.441895V42.4338H35.3295V0Z" fill="white"/>
</mask>
<g mask="url(#mask0_59677_43226)">
<path d="M29.4427 35.6644C29.483 34.5991 29.0261 33.5211 28.189 32.7085L23.807 28.4548C23.712 28.3626 23.5415 28.3523 23.4022 28.4294C21.7254 29.3558 19.8143 29.8449 17.8772 29.8449H17.0962V29.8158C12.9785 29.5391 9.46747 27.0912 7.7699 23.6475C8.04455 31.0884 11.842 38.039 18.0608 42.4342L18.9591 42.2713C22.4298 41.6406 25.6765 40.1279 28.3453 37.8962C29.207 37.1758 29.4167 36.2849 29.4414 35.6644H29.4427Z" fill="#2BAF3A"/>
<path d="M32.2299 30.148C32.5345 30.445 32.955 30.5726 33.3521 30.4893C33.5526 30.4462 33.9157 30.3097 34.085 29.8661C34.9103 27.7027 35.3281 25.4304 35.3281 23.1127V3.79269C35.3281 3.1684 34.8673 2.64394 34.2321 2.54537L22.6887 0.74707C24.3291 1.88444 25.7715 3.28846 26.96 4.91741C29.138 7.90239 30.2901 11.4194 30.2901 15.0893C30.2901 18.2575 29.4141 21.3625 27.7567 24.0719C27.6019 24.3512 27.434 24.6267 27.2569 24.8896C27.1644 25.0274 27.1697 25.2055 27.2699 25.3041L32.2312 30.148H32.2299Z" fill="#2BAF3A"/>
<path d="M28.7279 15.0891C28.7279 11.7351 27.6761 8.52014 25.6856 5.79426C23.7524 3.14672 21.0875 1.14874 17.9722 0.0126374L17.8863 0L1.53803 2.54517C0.902741 2.64374 0.441895 3.1682 0.441895 3.79249V13.3602C2.78128 10.4941 5.99288 8.46202 9.69787 7.54451C14.2777 6.41094 19.1531 7.10473 23.4269 9.50084L23.8175 9.71943V9.7308C26.2349 11.1992 27.9638 13.5005 28.6941 16.119C28.7162 15.7766 28.7279 15.4341 28.7279 15.0891Z" fill="#2BAF3A"/>
<path d="M0.441895 16.0559V23.138C0.441895 31.8362 6.37952 39.396 14.8219 41.8059C9.37239 36.9494 6.19987 30.0455 6.19987 22.7764V20.8809L6.26757 20.9504C6.3678 19.5741 6.58001 18.2055 6.90415 16.8673C7.71648 12.8574 10.7628 9.71695 14.6383 8.5733C8.96101 8.37993 3.509 11.0477 0.441895 16.0559Z" fill="#2BAF3A"/>
<path d="M17.8865 25.391C21.6251 25.391 24.6559 22.4489 24.6559 18.8196C24.6559 15.1903 21.6251 12.248 17.8865 12.248C14.1478 12.248 11.1169 15.1903 11.1169 18.8196C11.1169 22.4489 14.1478 25.391 17.8865 25.391Z" fill="#2BAF3A"/>
</g>
<path d="M51.0034 32.5579L44.6279 10.4648H50.1814L54.1577 27.4305H54.2689L58.8671 10.4648H64.1763L68.7747 27.4305H68.9077L72.8841 10.4648H78.3489L71.9734 32.5579H66.1535L61.5107 16.405H61.3996L56.7791 32.5579H51.0034Z" fill="#454655"/>
<path d="M92.0676 33.7213C84.9637 33.7213 80.6744 29.0501 80.6744 21.5895V21.5674C80.6744 14.1732 85.0303 9.30273 91.7993 9.30273C98.5677 9.30273 102.767 14.0182 102.767 21.1025V22.8735H86.1921C86.2816 26.9912 88.5604 29.4265 92.1792 29.4265C94.9487 29.4265 96.7582 27.9654 97.2949 26.3935L97.3392 26.2386H102.544L102.477 26.482C101.74 30.0906 98.255 33.7213 92.0676 33.7213ZM91.8665 13.6197C88.9173 13.6197 86.7058 15.5899 86.2594 19.1986H97.3613C96.9592 15.4794 94.815 13.6197 91.8665 13.6197Z" fill="#454655"/>
<path d="M117.302 33.7213C110.584 33.7213 106.256 29.1166 106.256 21.5231V21.4788C106.256 13.9518 110.649 9.30273 117.281 9.30273C123.935 9.30273 128.349 13.9075 128.349 21.4788V21.5231C128.349 29.1387 123.999 33.7213 117.302 33.7213ZM117.324 29.2715C120.705 29.2715 122.88 26.4379 122.88 21.5231V21.4788C122.88 16.5862 120.684 13.7746 117.281 13.7746C113.943 13.7746 111.726 16.6084 111.726 21.4788V21.5231C111.726 26.4599 113.901 29.2715 117.324 29.2715Z" fill="#454655"/>
<path d="M130.872 40.6974C130.411 40.6974 129.841 40.676 129.512 40.6332V36.461C129.731 36.461 129.972 36.4824 130.236 36.4824C132.495 36.4824 133.351 35.7976 133.351 33.7009V10.4648H138.814V33.7865C138.814 38.3866 136.159 40.6974 130.872 40.6974Z" fill="#454655"/>
<path d="M151.463 33.7213C146.686 33.7213 143.465 30.8133 143.465 26.6177V26.5733C143.465 22.4001 146.754 19.8916 152.544 19.5363L158.785 19.159V17.5384C158.785 15.1632 157.208 13.7203 154.369 13.7203C151.71 13.7203 150.088 14.9412 149.728 16.6727L149.683 16.8725H144.479L144.501 16.6061C144.84 12.4327 148.512 9.30273 154.572 9.30273C160.543 9.30273 164.395 12.4105 164.395 17.1389V33.3218H158.785V29.7033H158.65C157.276 32.1674 154.617 33.7213 151.463 33.7213ZM149.052 26.3958C149.052 28.327 150.674 29.5035 153.13 29.5035C156.352 29.5035 158.785 27.3947 158.785 24.5976V22.8218L153.333 23.1548C150.562 23.3323 149.052 24.5089 149.052 26.3736V26.3958Z" fill="#454655"/>
<path d="M162.5 38.3721H148.849C147.802 38.3721 146.953 39.2087 146.953 40.2408V46.9685C146.953 48.0006 147.802 48.8372 148.849 48.8372H162.5C163.546 48.8372 164.395 48.0006 164.395 46.9685V40.2408C164.395 39.2087 163.546 38.3721 162.5 38.3721Z" stroke="#454655"/>
<path d="M149.279 40.6973H151.037C151.207 40.6973 151.374 40.7188 151.54 40.7619C151.706 40.8006 151.852 40.8674 151.979 40.9621C152.112 41.0526 152.217 41.171 152.298 41.3174C152.379 41.4638 152.419 41.6404 152.419 41.8471C152.419 42.1055 152.348 42.3187 152.202 42.4867C152.058 42.6546 151.87 42.7752 151.636 42.8484V42.8613C151.776 42.8785 151.906 42.9195 152.024 42.9841C152.148 43.0444 152.251 43.124 152.336 43.2231C152.421 43.3178 152.487 43.4298 152.534 43.559C152.585 43.6839 152.611 43.8196 152.611 43.966C152.611 44.2158 152.562 44.4247 152.464 44.5926C152.366 44.7563 152.236 44.8898 152.074 44.9931C151.919 45.0923 151.736 45.1633 151.527 45.2063C151.323 45.2494 151.115 45.2709 150.904 45.2709H149.279V40.6973ZM150.081 42.5577H150.814C151.081 42.5577 151.281 42.5061 151.413 42.4027C151.549 42.2951 151.616 42.1551 151.616 41.9828C151.616 41.7847 151.547 41.6382 151.406 41.5435C151.271 41.4445 151.05 41.3949 150.744 41.3949H150.081V42.5577ZM150.081 44.5732H150.82C150.922 44.5732 151.03 44.5668 151.145 44.5539C151.264 44.541 151.373 44.5109 151.47 44.4634C151.567 44.416 151.648 44.3494 151.712 44.2632C151.776 44.1727 151.807 44.0522 151.807 43.9015C151.807 43.6602 151.729 43.4923 151.572 43.3975C151.419 43.3028 151.179 43.2554 150.852 43.2554H150.081V44.5732ZM153.95 43.9918C153.976 44.2244 154.065 44.4053 154.217 44.5345C154.371 44.6637 154.556 44.7283 154.772 44.7283C154.963 44.7283 155.122 44.6895 155.25 44.612C155.381 44.5302 155.495 44.4289 155.594 44.3084L156.142 44.7283C155.963 44.9522 155.763 45.1116 155.543 45.2063C155.321 45.301 155.091 45.3484 154.849 45.3484C154.62 45.3484 154.402 45.3097 154.199 45.2322C153.995 45.1546 153.819 45.0448 153.67 44.9027C153.521 44.7605 153.402 44.5904 153.314 44.3924C153.228 44.1899 153.186 43.966 153.186 43.7205C153.186 43.4751 153.228 43.2532 153.314 43.0552C153.402 42.8527 153.521 42.6805 153.67 42.5383C153.819 42.3962 153.995 42.2865 154.199 42.2089C154.402 42.1313 154.62 42.0926 154.849 42.0926C155.061 42.0926 155.254 42.1313 155.428 42.2089C155.606 42.2821 155.757 42.3898 155.88 42.5319C156.008 42.674 156.105 42.8506 156.173 43.0616C156.245 43.2683 156.281 43.5074 156.281 43.7787V43.9918H153.95ZM155.517 43.4104C155.513 43.1822 155.442 43.0034 155.307 42.8742C155.171 42.7408 154.983 42.674 154.741 42.674C154.511 42.674 154.328 42.7408 154.193 42.8742C154.061 43.0077 153.98 43.1866 153.95 43.4104H155.517ZM156.64 42.829V42.1702H157.27V41.2721H158.035V42.1702H158.876V42.829H158.035V44.1856C158.035 44.3406 158.062 44.4634 158.117 44.5539C158.176 44.6442 158.291 44.6895 158.462 44.6895C158.529 44.6895 158.602 44.6831 158.684 44.6702C158.764 44.653 158.828 44.6271 158.876 44.5926V45.2451C158.794 45.2838 158.694 45.3097 158.576 45.3226C158.462 45.3398 158.359 45.3484 158.27 45.3484C158.066 45.3484 157.899 45.3248 157.767 45.2774C157.64 45.2344 157.537 45.1675 157.462 45.0772C157.388 44.9824 157.338 44.8661 157.308 44.7283C157.283 44.5904 157.27 44.4311 157.27 44.2503V42.829H156.64ZM161.381 44.8446H161.363C161.252 45.0211 161.112 45.1504 160.943 45.2322C160.773 45.3097 160.586 45.3484 160.383 45.3484C160.242 45.3484 160.105 45.329 159.969 45.2903C159.837 45.2516 159.717 45.1934 159.612 45.1159C159.509 45.0383 159.427 44.9415 159.363 44.8252C159.299 44.7089 159.267 44.5732 159.267 44.4182C159.267 44.2503 159.297 44.1081 159.357 43.9918C159.416 43.8713 159.494 43.7722 159.592 43.6947C159.694 43.6128 159.812 43.5483 159.943 43.5009C160.074 43.4534 160.211 43.4191 160.35 43.3975C160.494 43.3717 160.64 43.3566 160.784 43.3523C160.928 43.3437 161.064 43.3394 161.191 43.3394H161.381V43.2554C161.381 43.0616 161.316 42.9173 161.185 42.8226C161.054 42.7235 160.885 42.674 160.681 42.674C160.52 42.674 160.37 42.7041 160.229 42.7645C160.09 42.8204 159.969 42.898 159.866 42.997L159.465 42.5901C159.635 42.4134 159.831 42.2865 160.057 42.2089C160.286 42.1313 160.522 42.0926 160.764 42.0926C160.98 42.0926 161.163 42.1184 161.312 42.1702C161.461 42.2175 161.584 42.2799 161.681 42.3575C161.779 42.4349 161.854 42.5254 161.905 42.6288C161.959 42.7278 161.998 42.829 162.019 42.9324C162.044 43.0358 162.059 43.1369 162.064 43.236C162.067 43.3308 162.07 43.4147 162.07 43.488V45.2709H161.381V44.8446ZM161.337 43.882H161.178C161.072 43.882 160.952 43.8863 160.821 43.8949C160.691 43.9035 160.564 43.9251 160.445 43.9596C160.331 43.9897 160.234 44.037 160.152 44.1017C160.072 44.162 160.031 44.2481 160.031 44.3601C160.031 44.4333 160.047 44.4958 160.077 44.5474C160.111 44.5948 160.152 44.6356 160.204 44.6702C160.255 44.7046 160.312 44.7304 160.376 44.7476C160.44 44.7605 160.504 44.767 160.566 44.767C160.83 44.767 161.023 44.7046 161.147 44.5797C161.273 44.4505 161.337 44.2761 161.337 44.0565V43.882Z" fill="#454655"/>
</g>
<defs>
<clipPath id="clip0_59677_43226">
<rect width="165.116" height="50" fill="white" transform="translate(0.441895)"/>
</clipPath>
</defs>
</svg>
